<svg width="32" height="32" viewBox="0 0 32 32" fill="none" xmlns="http://www.w3.org/2000/svg">
<path d="M21.6533 15.3467L23.7467 13.2534L18.7467 8.25339L16.6533 10.3467L11.1333 4.84006C10.0933 3.80006 8.4 3.80006 7.36 4.84006L4.82667 7.37339C3.78667 8.41339 3.78667 10.1067 4.82667 11.1467L10.3333 16.6534L4 23.0001V28.0001H9L15.3467 21.6534L20.8533 27.1601C22.12 28.4267 23.8267 27.9601 24.6267 27.1601L27.16 24.6267C28.2 23.5867 28.2 21.8934 27.16 20.8534L21.6533 15.3467ZM12.24 14.7601L6.72 9.25339L9.24 6.72006L10.9333 8.41339L9.36 10.0001L11.24 11.8801L12.8267 10.2934L14.76 12.2267L12.24 14.7601ZM22.7467 25.2801L17.24 19.7734L19.7733 17.2401L21.7067 19.1734L20.12 20.7601L22 22.6401L23.5867 21.0534L25.28 22.7467L22.7467 25.2801Z" fill="#333333"/>
<path d="M27.6128 9.38665C28.1328 8.86665 28.1328 8.02665 27.6128 7.50665L24.4929 4.38665C23.8662 3.75999 22.9995 3.99999 22.6128 4.38665L20.1729 6.82665L25.1729 11.8267L27.6128 9.38665Z" fill="#333333"/>
</svg>
