<svg width="32" height="32" viewBox="0 0 32 32" fill="none" xmlns="http://www.w3.org/2000/svg">
<path d="M25.5205 17.2533C25.5738 16.8533 25.6005 16.44 25.6005 16C25.6005 15.5733 25.5738 15.1466 25.5071 14.7466L28.2138 12.6399C28.4538 12.4533 28.5205 12.0933 28.3738 11.8266L25.8138 7.39995C25.6538 7.10662 25.3205 7.01328 25.0271 7.10662L21.8405 8.38662C21.1738 7.87995 20.4671 7.45328 19.6805 7.13328L19.2005 3.74662C19.1471 3.42662 18.8805 3.19995 18.5605 3.19995H13.4405C13.1205 3.19995 12.8671 3.42662 12.8138 3.74662L12.3338 7.13328C11.5471 7.45328 10.8271 7.89328 10.1738 8.38662L6.98714 7.10662C6.69381 6.99995 6.36047 7.10662 6.20047 7.39995L3.65381 11.8266C3.49381 12.1066 3.54714 12.4533 3.81381 12.6399L6.52047 14.7466C6.45381 15.1466 6.40047 15.5866 6.40047 16C6.40047 16.4133 6.42714 16.8533 6.49381 17.2533L3.78714 19.36C3.54714 19.5466 3.48047 19.9066 3.62714 20.1733L6.18714 24.6C6.34714 24.8933 6.68047 24.9866 6.97381 24.8933L10.1605 23.6133C10.8271 24.1199 11.5338 24.5466 12.3205 24.8666L12.8005 28.2533C12.8671 28.5733 13.1205 28.8 13.4405 28.8H18.5605C18.8805 28.8 19.1471 28.5733 19.1871 28.2533L19.6671 24.8666C20.4538 24.5466 21.1738 24.1199 21.8271 23.6133L25.0138 24.8933C25.3071 25 25.6405 24.8933 25.8005 24.6L28.3605 20.1733C28.5205 19.8799 28.4538 19.5466 28.2005 19.36L25.5205 17.2533ZM16.0005 20.8C13.3605 20.8 11.2005 18.64 11.2005 16C11.2005 13.36 13.3605 11.2 16.0005 11.2C18.6405 11.2 20.8005 13.36 20.8005 16C20.8005 18.64 18.6405 20.8 16.0005 20.8Z" fill="#333333"/>
</svg>
