<svg width="32" height="32" viewBox="0 0 32 32" fill="none" xmlns="http://www.w3.org/2000/svg">
<path d="M15.9997 10.6666C17.4724 10.6666 18.6663 9.47268 18.6663 7.99992C18.6663 6.52716 17.4724 5.33325 15.9997 5.33325C14.5269 5.33325 13.333 6.52716 13.333 7.99992C13.333 9.47268 14.5269 10.6666 15.9997 10.6666Z" fill="#333333"/>
<path d="M28 21.3333V18.6667C25.0133 18.6667 22.4533 17.3867 20.5333 15.0933L18.7467 12.96C18.24 12.3467 17.4933 12 16.7067 12H15.3067C14.52 12 13.7733 12.3467 13.2667 12.96L11.48 15.0933C9.54667 17.3867 6.98667 18.6667 4 18.6667V21.3333C7.69333 21.3333 10.92 19.7733 13.3333 17V20L8.16 22.0667C7.26667 22.4267 6.66667 23.3067 6.66667 24.28C6.66667 25.6 7.73333 26.6667 9.05333 26.6667H12V26C12 24.16 13.4933 22.6667 15.3333 22.6667H19.3333C19.7067 22.6667 20 22.96 20 23.3333C20 23.7067 19.7067 24 19.3333 24H15.3333C14.2267 24 13.3333 24.8933 13.3333 26V26.6667H22.9467C24.2667 26.6667 25.3333 25.6 25.3333 24.28C25.3333 23.3067 24.7333 22.4267 23.84 22.0667L18.6667 20V17C21.08 19.7733 24.3067 21.3333 28 21.3333Z" fill="#333333"/>
</svg>
