<svg width="32" height="32" viewBox="0 0 32 32" fill="none" xmlns="http://www.w3.org/2000/svg">
<path d="M21.333 14.6667C23.5463 14.6667 25.3197 12.8801 25.3197 10.6667C25.3197 8.45341 23.5463 6.66675 21.333 6.66675C19.1197 6.66675 17.333 8.45341 17.333 10.6667C17.333 12.8801 19.1197 14.6667 21.333 14.6667ZM10.6663 14.6667C12.8797 14.6667 14.653 12.8801 14.653 10.6667C14.653 8.45341 12.8797 6.66675 10.6663 6.66675C8.45301 6.66675 6.66634 8.45341 6.66634 10.6667C6.66634 12.8801 8.45301 14.6667 10.6663 14.6667ZM10.6663 17.3334C7.55967 17.3334 1.33301 18.8934 1.33301 22.0001V25.3334H19.9997V22.0001C19.9997 18.8934 13.773 17.3334 10.6663 17.3334ZM21.333 17.3334C20.9463 17.3334 20.5063 17.3601 20.0397 17.4001C21.5863 18.5201 22.6663 20.0267 22.6663 22.0001V25.3334H30.6663V22.0001C30.6663 18.8934 24.4397 17.3334 21.333 17.3334Z" fill="#333333"/>
</svg>
